<svg id="Layer_1" data-name="Layer 1" xmlns="http://www.w3.org/2000/svg" viewBox="0 0 1477.24 326.84"><defs><style>.cls-1{fill:#d24a43;}</style></defs><title>logo 1+</title><path d="M749.77,200.9c-23.28-1-44.62,4.26-62,20.8-18.14,17.26-24.87,39.06-24.56,63.52,0,1.16,0,2.33,0,3.49.76,30.85,12.27,56.34,40.33,70.89,28.49,14.78,58.12,14.14,86-2.2,23.3-13.68,33.69-35.93,36.06-62.28C830.42,241.8,799.17,203.07,749.77,200.9Zm32.35,125.81c-14.74,15.92-33.34,19.05-53.25,13.6-20.35-5.57-31.11-20.69-35.13-40.74a69.84,69.84,0,0,1,2.72-38.87c8.24-22,28.24-34.62,51.34-32.76,24.5,2,42,16.9,46.79,40.31,1.18,5.64,1.54,11.46,2.27,17.2C796.23,300.83,792.85,315.13,782.12,326.71Z" transform="translate(322.02 -128.71)"/><path class="cls-1" d="M-276.7,398.05-322,352.77l29.54-29.53c19.79-19.82,19.92-46.51.23-66.52-9.34-9.5-18.84-18.84-27.83-27.81l45-45C-219,235.22-213.41,339-276.7,398.05Z" transform="translate(322.02 -128.71)"/><path class="cls-1" d="M-51.53,175.88c-48.18,53.72-151.1,63.85-214.09-1.66l45.47-45.51c6.06,6.14,12.53,12.71,19,19.27,4.21,4.25,8.38,8.57,12.73,12.7a44.48,44.48,0,0,0,60.59,1.21c9.62-8.66,18.49-18.18,27.7-27.29,1.35-1.35,2.75-2.65,3.8-3.65Z" transform="translate(322.02 -128.71)"/><path d="M1154.94,366.44h-25.76v-6.07c0-18.39.08-36.79-.06-55.17a58.47,58.47,0,0,0-1.25-12.68c-2.66-11.52-12.61-19.18-23.46-18.56-12.63.72-22.94,10.5-23.71,24.25-.89,16-.54,32.11-.69,48.17-.06,6.55,0,13.1,0,20h-26.16v-6c-.06-20.14.1-40.27-.27-60.4-.25-13.18-7.31-22.66-17.64-25.05-16.67-3.86-30.54,7.83-31,26.83-.42,19.36-.12,38.72-.13,58.08,0,2.08,0,4.16,0,6.56H978.81V253.09H1001c1.13,5.26,2.28,10.64,3.7,17.27,8-15.11,20.43-21.31,36-20.75s27.68,7.68,35.35,22.6c6.83-14,17.68-20.8,32.13-22.5,23.8-2.8,45.63,13.76,46.51,37.2C1155.7,313.18,1154.94,339.52,1154.94,366.44Z" transform="translate(322.02 -128.71)"/><path class="cls-1" d="M-53.54,408.66l-45.24,45.25c-8.44-8.45-17.17-17.18-25.91-25.91-19.85-19.84-46.46-20-66.52-.34-9.51,9.32-18.84,18.83-27.89,27.89l-45-45C-214.26,355.75-113.16,349-53.54,408.66Z" transform="translate(322.02 -128.71)"/><path class="cls-1" d="M5,350l-45.66,45.22c-58.46-55.49-57.51-156.15-1.66-210.16l45,45.18C-5.73,238.67-14.82,247.83-24,256.9a44,44,0,0,0-12.43,21.86c-3.37,15-.19,28.58,10,39.94C-17.88,328.19-8.56,337,.44,346,1.94,347.53,3.64,348.82,5,350Z" transform="translate(322.02 -128.71)"/><path d="M597.07,366.42H571.61V360c-.07-19.75.14-39.51-.29-59.25-.29-13.74-8-23.63-19-26-18-3.85-32.76,8.56-33.09,28.35-.32,18.78-.07,37.57-.07,56.35v6.75h-26v-169h25.93v72.23C531.37,251,548,247,567,251c16.36,3.41,29.09,17,29.8,34.38C597.89,312.18,597.07,339.09,597.07,366.42Z" transform="translate(322.02 -128.71)"/><path d="M244.87,203.81c-1.19,2.37-2,4.05-2.86,5.7-17.18,32.87-34.44,65.7-51.44,98.65a27.12,27.12,0,0,0-2.86,11.53c-.33,15.44-.13,30.88-.13,46.65H159.92c-.08-1.82-.23-3.68-.24-5.53,0-6-.61-12.07.1-18,2.43-20.47-3.63-38.33-13.74-56-14.57-25.47-27.44-51.91-41-78-.69-1.31-1.21-2.71-2.24-5,10.51,0,20-.22,29.44.19,1.8.08,4.22,2.3,5.13,4.13,10.54,21.29,20.84,42.7,31.22,64.06,1.51,3.13,3.07,6.22,4.89,9.89a35.57,35.57,0,0,0,2.27-3.46c11.49-23.61,22.92-47.27,34.51-70.85.79-1.6,2.71-3.73,4.17-3.77C224.25,203.65,234.11,203.81,244.87,203.81Z" transform="translate(322.02 -128.71)"/><path d="M343.45,269.13c-15.6-18.5-44.68-25.12-69.71-15.89-22.65,8.36-35.81,29-35.82,56.2-.35,13.3,2.58,25.73,10.4,36.7,13.73,19.26,39.88,27.56,66.12,21.12C355.32,357.22,371.53,302.41,343.45,269.13Zm-56.19,74.39c-13.45-3.82-21.86-15.61-22.93-32.11-1.66-25.66,18.77-43.12,42.74-36.52,14.31,3.94,23,16.86,23,34.27C330.15,334.64,310.75,350.2,287.26,343.52Z" transform="translate(322.02 -128.71)"/><path d="M457.41,359.27c-19.27,15.17-56.25,13.13-73.72-4.13a34.65,34.65,0,0,1-10.53-21.82L394.84,330c5.06,18.4,24.41,21.11,38.47,16.91a18.45,18.45,0,0,0,4.66-2.32c4.19-2.74,6.54-6.56,5.9-11.73s-4-8-8.58-9.1c-9-2.17-18.19-3.64-27.17-5.89a71.76,71.76,0,0,1-15.19-5.49c-19.62-10-22.89-34.86-7.12-50.25s56.77-19.9,75.14,6.08c2.4,3.4,4,7.36,6.29,11.73L445,286.51c-7-13.88-17.82-19-31.39-15-6.73,2-11.17,6.82-11.38,12.45s3.61,10.36,11.14,12.27c8.42,2.13,17,3.52,25.52,5.34a73.94,73.94,0,0,1,10,2.76c11.26,4.1,19.54,11.13,21.17,23.72S467.52,351.28,457.41,359.27Z" transform="translate(322.02 -128.71)"/><path d="M901.53,342.27V366c-9.53,0-19.29,1.12-28.69-.26-16-2.37-25.07-12.5-25.32-29.79-.64-46-.21-92.08-.21-138.63h26.24V204q0,62.41,0,124.83c0,10.56,2.74,13.34,13.39,13.46C891.57,342.31,896.21,342.27,901.53,342.27Z" transform="translate(322.02 -128.71)"/><path class="cls-1" d="M-122.3,291a35.69,35.69,0,0,1-36.23,35.9c-20.13-.06-35.53-15.89-35.47-36.47.05-20.13,15.51-35.47,35.75-35.47S-122.24,270.59-122.3,291Z" transform="translate(322.02 -128.71)"/><rect x="1245.03" y="124.17" width="25.29" height="113.62"/><rect x="1244.04" y="68.57" width="27.17" height="28.47"/></svg>